<svg width="38" height="38" viewBox="0 0 38 38" fill="none" xmlns="http://www.w3.org/2000/svg">
<path d="M14.1214 36.9729H12.6117C12.4755 36.9729 12.3449 36.9188 12.2485 36.8225C12.1522 36.7262 12.0981 36.5956 12.0981 36.4594C12.0981 36.3232 12.1522 36.1926 12.2485 36.0963C12.3449 36 12.4755 35.9459 12.6117 35.9459H14.1214C14.2576 35.9459 14.3882 36 14.4845 36.0963C14.5808 36.1926 14.6349 36.3232 14.6349 36.4594C14.6349 36.5956 14.5808 36.7262 14.4845 36.8225C14.3882 36.9188 14.2576 36.9729 14.1214 36.9729Z" fill="#5A6770" fill-opacity="0.7"/>
<path d="M36.4595 36.973H22.8206C22.6844 36.973 22.5538 36.9189 22.4575 36.8226C22.3612 36.7263 22.3071 36.5957 22.3071 36.4595C22.3071 36.3233 22.3612 36.1927 22.4575 36.0964C22.5538 36.0001 22.6844 35.9459 22.8206 35.9459H35.946V33.8919H2.05413V35.9459H9.01737C9.15356 35.9459 9.28418 36.0001 9.38048 36.0964C9.47678 36.1927 9.53088 36.3233 9.53088 36.4595C9.53088 36.5957 9.47678 36.7263 9.38048 36.8226C9.28418 36.9189 9.15356 36.973 9.01737 36.973H1.54061C1.40442 36.973 1.27381 36.9189 1.1775 36.8226C1.0812 36.7263 1.0271 36.5957 1.0271 36.4595V33.3784C1.0271 33.2422 1.0812 33.1116 1.1775 33.0153C1.27381 32.919 1.40442 32.8649 1.54061 32.8649H36.4595C36.5957 32.8649 36.7263 32.919 36.8226 33.0153C36.9189 33.1116 36.973 33.2422 36.973 33.3784V36.4595C36.973 36.5957 36.9189 36.7263 36.8226 36.8226C36.7263 36.9189 36.5957 36.973 36.4595 36.973Z" fill="#5A6770" fill-opacity="0.7"/>
<path d="M19.2207 36.9729H17.7162C17.58 36.9729 17.4493 36.9188 17.353 36.8225C17.2567 36.7262 17.2026 36.5956 17.2026 36.4594C17.2026 36.3232 17.2567 36.1926 17.353 36.0963C17.4493 36 17.58 35.9459 17.7162 35.9459H19.2207C19.3569 35.9459 19.4876 36 19.5839 36.0963C19.6802 36.1926 19.7343 36.3232 19.7343 36.4594C19.7343 36.5956 19.6802 36.7262 19.5839 36.8225C19.4876 36.9188 19.3569 36.9729 19.2207 36.9729Z" fill="#5A6770" fill-opacity="0.7"/>
<path d="M25.6757 5.13521H1.54061C1.40442 5.13521 1.27381 5.08111 1.1775 4.9848C1.0812 4.8885 1.0271 4.75789 1.0271 4.62169V1.54061C1.0271 1.40442 1.0812 1.27381 1.1775 1.1775C1.27381 1.0812 1.40442 1.0271 1.54061 1.0271H25.6757C25.8119 1.0271 25.9426 1.0812 26.0389 1.1775C26.1352 1.27381 26.1893 1.40442 26.1893 1.54061V4.62169C26.1893 4.75789 26.1352 4.8885 26.0389 4.9848C25.9426 5.08111 25.8119 5.13521 25.6757 5.13521ZM2.05413 4.10818H25.1622V2.05413H2.05413V4.10818Z" fill="#5A6770" fill-opacity="0.7"/>
<path d="M36.4594 17.4594H24.1351C23.9989 17.4594 23.8683 17.4053 23.772 17.309C23.6757 17.2127 23.6216 17.0821 23.6216 16.9459V13.8648C23.6216 13.7286 23.6757 13.598 23.772 13.5017C23.8683 13.4054 23.9989 13.3513 24.1351 13.3513H36.4594C36.5956 13.3513 36.7262 13.4054 36.8225 13.5017C36.9188 13.598 36.9729 13.7286 36.9729 13.8648V16.9459C36.9729 17.0821 36.9188 17.2127 36.8225 17.309C36.7262 17.4053 36.5956 17.4594 36.4594 17.4594ZM24.6486 16.4324H35.9459V14.3783H24.6486V16.4324Z" fill="#5A6770" fill-opacity="0.7"/>
<path d="M24.1354 33.8918H3.59481C3.45862 33.8918 3.32801 33.8377 3.2317 33.7414C3.1354 33.6451 3.0813 33.5145 3.0813 33.3783V4.62155C3.0813 4.48535 3.1354 4.35474 3.2317 4.25844C3.32801 4.16213 3.45862 4.10803 3.59481 4.10803H24.1354C24.2715 4.10803 24.4022 4.16213 24.4985 4.25844C24.5948 4.35474 24.6489 4.48535 24.6489 4.62155V33.3783C24.6489 33.5145 24.5948 33.6451 24.4985 33.7414C24.4022 33.8377 24.2715 33.8918 24.1354 33.8918ZM4.10833 32.8648H23.6218V5.13506H4.10833V32.8648Z" fill="#5A6770" fill-opacity="0.7"/>
<path d="M19.7705 13.3514H16.1759C16.0397 13.3514 15.9091 13.2973 15.8128 13.201C15.7165 13.1047 15.6624 12.974 15.6624 12.8378V9.24325C15.6624 9.10706 15.7165 8.97644 15.8128 8.88014C15.9091 8.78384 16.0397 8.72974 16.1759 8.72974H19.7705C19.9067 8.72974 20.0373 8.78384 20.1336 8.88014C20.2299 8.97644 20.284 9.10706 20.284 9.24325V12.8378C20.284 12.974 20.2299 13.1047 20.1336 13.201C20.0373 13.2973 19.9067 13.3514 19.7705 13.3514ZM16.6894 12.3243H19.2569V9.75676H16.6894V12.3243Z" fill="#5A6770" fill-opacity="0.7"/>
<path d="M30.6823 23.975H27.858C27.7218 23.975 27.5912 23.9209 27.4949 23.8246C27.3986 23.7283 27.3445 23.5977 27.3445 23.4615V20.6372C27.3445 20.501 27.3986 20.3704 27.4949 20.2741C27.5912 20.1778 27.7218 20.1237 27.858 20.1237H30.6823C30.8185 20.1237 30.9491 20.1778 31.0454 20.2741C31.1417 20.3704 31.1958 20.501 31.1958 20.6372V23.4615C31.1958 23.5977 31.1417 23.7283 31.0454 23.8246C30.9491 23.9209 30.8185 23.975 30.6823 23.975ZM28.3715 22.948H30.1688V21.1507H28.3715V22.948Z" fill="#5A6770" fill-opacity="0.7"/>
<path d="M30.6823 30.2008H27.858C27.7218 30.2008 27.5912 30.1467 27.4949 30.0504C27.3986 29.9541 27.3445 29.8235 27.3445 29.6873V26.863C27.3445 26.7268 27.3986 26.5962 27.4949 26.4999C27.5912 26.4036 27.7218 26.3495 27.858 26.3495H30.6823C30.8185 26.3495 30.9491 26.4036 31.0454 26.4999C31.1417 26.5962 31.1958 26.7268 31.1958 26.863V29.6873C31.1958 29.8235 31.1417 29.9541 31.0454 30.0504C30.9491 30.1467 30.8185 30.2008 30.6823 30.2008ZM28.3715 29.1738H30.1688V27.3765H28.3715V29.1738Z" fill="#5A6770" fill-opacity="0.7"/>
<path d="M11.5539 13.3514H7.95931C7.82312 13.3514 7.69251 13.2973 7.59621 13.201C7.4999 13.1047 7.4458 12.974 7.4458 12.8378V9.24325C7.4458 9.10706 7.4999 8.97644 7.59621 8.88014C7.69251 8.78384 7.82312 8.72974 7.95931 8.72974H11.5539C11.6901 8.72974 11.8207 8.78384 11.917 8.88014C12.0133 8.97644 12.0674 9.10706 12.0674 9.24325V12.8378C12.0674 12.974 12.0133 13.1047 11.917 13.201C11.8207 13.2973 11.6901 13.3514 11.5539 13.3514ZM8.47283 12.3243H11.0404V9.75676H8.47283V12.3243Z" fill="#5A6770" fill-opacity="0.7"/>
<path d="M19.7705 21.3108H16.1759C16.0397 21.3108 15.9091 21.2567 15.8128 21.1604C15.7165 21.0641 15.6624 20.9335 15.6624 20.7973V17.2027C15.6624 17.0665 15.7165 16.9359 15.8128 16.8396C15.9091 16.7433 16.0397 16.6892 16.1759 16.6892H19.7705C19.9067 16.6892 20.0373 16.7433 20.1336 16.8396C20.2299 16.9359 20.284 17.0665 20.284 17.2027V20.7973C20.284 20.9335 20.2299 21.0641 20.1336 21.1604C20.0373 21.2567 19.9067 21.3108 19.7705 21.3108ZM16.6894 20.2838H19.2569V17.7162H16.6894V20.2838Z" fill="#5A6770" fill-opacity="0.7"/>
<path d="M11.5539 21.3108H7.95931C7.82312 21.3108 7.69251 21.2567 7.59621 21.1604C7.4999 21.0641 7.4458 20.9335 7.4458 20.7973V17.2027C7.4458 17.0665 7.4999 16.9359 7.59621 16.8396C7.69251 16.7433 7.82312 16.6892 7.95931 16.6892H11.5539C11.6901 16.6892 11.8207 16.7433 11.917 16.8396C12.0133 16.9359 12.0674 17.0665 12.0674 17.2027V20.7973C12.0674 20.9335 12.0133 21.0641 11.917 21.1604C11.8207 21.2567 11.6901 21.3108 11.5539 21.3108ZM8.47283 20.2838H11.0404V17.7162H8.47283V20.2838Z" fill="#5A6770" fill-opacity="0.7"/>
<path d="M19.7705 29.2703H16.1759C16.0397 29.2703 15.9091 29.2162 15.8128 29.1199C15.7165 29.0236 15.6624 28.893 15.6624 28.7568V25.1622C15.6624 25.026 15.7165 24.8954 15.8128 24.7991C15.9091 24.7028 16.0397 24.6487 16.1759 24.6487H19.7705C19.9067 24.6487 20.0373 24.7028 20.1336 24.7991C20.2299 24.8954 20.284 25.026 20.284 25.1622V28.7568C20.284 28.893 20.2299 29.0236 20.1336 29.1199C20.0373 29.2162 19.9067 29.2703 19.7705 29.2703ZM16.6894 28.2433H19.2569V25.6757H16.6894V28.2433Z" fill="#5A6770" fill-opacity="0.7"/>
<path d="M11.5539 29.2703H7.95931C7.82312 29.2703 7.69251 29.2162 7.59621 29.1199C7.4999 29.0236 7.4458 28.893 7.4458 28.7568V25.1622C7.4458 25.026 7.4999 24.8954 7.59621 24.7991C7.69251 24.7028 7.82312 24.6487 7.95931 24.6487H11.5539C11.6901 24.6487 11.8207 24.7028 11.917 24.7991C12.0133 24.8954 12.0674 25.026 12.0674 25.1622V28.7568C12.0674 28.893 12.0133 29.0236 11.917 29.1199C11.8207 29.2162 11.6901 29.2703 11.5539 29.2703ZM8.47283 28.2433H11.0404V25.6757H8.47283V28.2433Z" fill="#5A6770" fill-opacity="0.7"/>
<path d="M34.4054 33.8918H24.1351C23.9989 33.8918 23.8683 33.8377 23.772 33.7414C23.6757 33.6451 23.6216 33.5145 23.6216 33.3783V16.9459C23.6216 16.8097 23.6757 16.6791 23.772 16.5828C23.8683 16.4865 23.9989 16.4324 24.1351 16.4324H34.4054C34.5416 16.4324 34.6722 16.4865 34.7685 16.5828C34.8648 16.6791 34.9189 16.8097 34.9189 16.9459V33.3783C34.9189 33.5145 34.8648 33.6451 34.7685 33.7414C34.6722 33.8377 34.5416 33.8918 34.4054 33.8918ZM24.6486 32.8648H33.8919V17.4594H24.6486V32.8648Z" fill="#5A6770" fill-opacity="0.7"/>
</svg>
