<svg width="36" height="36" viewBox="0 0 36 36" fill="none" xmlns="http://www.w3.org/2000/svg">
<g clip-path="url(#clip0_2311_569)">
<path d="M35.4727 33.9574H34.1025V11.685C34.1025 10.9842 33.5324 10.414 32.8314 10.414H28.3312C28.04 10.414 27.8039 10.6501 27.8039 10.9413C27.8039 11.2326 28.04 11.4687 28.3312 11.4687H32.8314C32.9508 11.4687 33.0479 11.5657 33.0479 11.685V33.9575H26.396V31.3253H30.4189C30.9565 31.3253 31.394 30.8879 31.394 30.3502V29.1029C31.394 28.5652 30.9566 28.1278 30.4189 28.1278H26.396V26.5806H30.4189C30.9565 26.5806 31.394 26.1432 31.394 25.6055V24.3582C31.394 23.8206 30.9566 23.3831 30.4189 23.3831H26.396V21.8359H30.4189C30.9565 21.8359 31.394 21.3985 31.394 20.8608V19.6135C31.394 19.0759 30.9566 18.6385 30.4189 18.6385H26.396V17.0913H30.4189C30.9565 17.0913 31.394 16.6539 31.394 16.1162V14.8689C31.394 14.3312 30.9566 13.8938 30.4189 13.8938H26.396V6.83601C26.396 6.32125 26.0889 5.86077 25.6138 5.66298L14.6226 1.0822C14.2448 0.924695 13.8161 0.966039 13.4757 1.19301C13.1351 1.41998 12.9319 1.79995 12.9319 2.20945V4.68051H10.1329V2.51966C10.1329 2.22843 9.89684 1.99232 9.6056 1.99232C9.31437 1.99232 9.07826 2.22843 9.07826 2.51966V4.68058H5.9142C5.21332 4.68058 4.64309 5.25074 4.64309 5.95169V7.6053H2.86523C2.16429 7.6053 1.59398 8.17525 1.59398 8.87584V30.5356H1.27125C0.570305 30.5356 0 31.1059 0 31.8069V33.7412C0 34.4421 0.570305 35.0124 1.27125 35.0124L35.4727 35.0122C35.7639 35.0122 36 34.7761 36 34.4849C36 34.1936 35.7639 33.9574 35.4727 33.9574ZM30.3393 29.1825V30.2707H26.396V29.1825H30.3393ZM30.3393 24.4378V25.5259H26.396V24.4378H30.3393ZM30.3393 19.6931V20.7813H26.396V19.6931H30.3393ZM30.3393 14.9485V16.0367H26.396V14.9485H30.3393ZM13.9866 2.20945C13.9866 2.13161 14.033 2.08907 14.0606 2.07058C14.0883 2.05223 14.1453 2.02572 14.2168 2.05567L20.4303 4.64528V28.4035C20.4303 28.6947 20.6664 28.9308 20.9576 28.9308C21.2489 28.9308 21.485 28.6947 21.485 28.4035V5.0848L25.2083 6.6366C25.2892 6.67028 25.3414 6.74854 25.3414 6.83601L25.3412 33.9576H21.485V30.8763C21.485 30.585 21.2489 30.3489 20.9576 30.3489C20.6664 30.3489 20.4303 30.585 20.4303 30.8763V33.9576H17.8397V16.8021C17.8397 16.0163 17.2004 15.3769 16.4145 15.3769H13.9866V2.20945ZM16.4145 16.4316C16.6188 16.4316 16.785 16.5978 16.785 16.8021V33.9575H10.1329V16.8021C10.1329 16.5978 10.2991 16.4316 10.5034 16.4316H16.4145ZM9.07826 16.8021V20.5216H2.64867V16.4316H9.12881C9.09682 16.55 9.07826 16.6738 9.07826 16.8021ZM2.64867 21.5763H9.07826V25.6671H2.64867V21.5763ZM5.69784 5.95162C5.69784 5.8323 5.79495 5.7352 5.91427 5.7352H12.9317V7.60501H5.69784V5.95162ZM2.86523 8.65991H12.9319V10.5133H6.40315C6.11191 10.5133 5.8758 10.7494 5.8758 11.0406C5.8758 11.3319 6.11191 11.568 6.40315 11.568H12.9319V15.3769H2.64867V11.568H3.9472C4.23844 11.568 4.47455 11.3319 4.47455 11.0406C4.47455 10.7494 4.23844 10.5133 3.9472 10.5133H2.64867V8.87577C2.64867 8.7568 2.74584 8.65991 2.86523 8.65991ZM2.64867 26.7219H9.07826V30.5356H2.64867V26.7219ZM1.27125 33.9576C1.15186 33.9576 1.05469 33.8605 1.05469 33.7411V31.8068C1.05469 31.6874 1.15186 31.5902 1.27125 31.5902H9.07826V33.9576H1.27125Z" fill="#5A6770" fill-opacity="0.7"/>
<path d="M12.2373 19.9038C12.5285 19.9038 12.7646 19.6677 12.7646 19.3765V18.2489C12.7646 17.9577 12.5285 17.7216 12.2373 17.7216C11.9461 17.7216 11.71 17.9577 11.71 18.2489V19.3765C11.71 19.6677 11.946 19.9038 12.2373 19.9038Z" fill="#5A6770" fill-opacity="0.7"/>
<path d="M14.6606 19.9038C14.9519 19.9038 15.188 19.6677 15.188 19.3765V18.2489C15.188 17.9577 14.9519 17.7216 14.6606 17.7216C14.3694 17.7216 14.1333 17.9577 14.1333 18.2489V19.3765C14.1333 19.6677 14.3694 19.9038 14.6606 19.9038Z" fill="#5A6770" fill-opacity="0.7"/>
<path d="M12.2373 23.8438C12.5285 23.8438 12.7646 23.6077 12.7646 23.3164V22.1888C12.7646 21.8976 12.5285 21.6615 12.2373 21.6615C11.9461 21.6615 11.71 21.8976 11.71 22.1888V23.3164C11.71 23.6077 11.946 23.8438 12.2373 23.8438Z" fill="#5A6770" fill-opacity="0.7"/>
<path d="M14.6606 23.8438C14.9519 23.8438 15.188 23.6077 15.188 23.3164V22.1888C15.188 21.8976 14.9519 21.6615 14.6606 21.6615C14.3694 21.6615 14.1333 21.8976 14.1333 22.1888V23.3164C14.1333 23.6077 14.3694 23.8438 14.6606 23.8438Z" fill="#5A6770" fill-opacity="0.7"/>
<path d="M12.2373 27.7836C12.5285 27.7836 12.7646 27.5475 12.7646 27.2563V26.1287C12.7646 25.8374 12.5285 25.6013 12.2373 25.6013C11.9461 25.6013 11.71 25.8374 11.71 26.1287V27.2563C11.71 27.5475 11.946 27.7836 12.2373 27.7836Z" fill="#5A6770" fill-opacity="0.7"/>
<path d="M14.6606 27.7836C14.9519 27.7836 15.188 27.5475 15.188 27.2563V26.1287C15.188 25.8374 14.9519 25.6013 14.6606 25.6013C14.3694 25.6013 14.1333 25.8374 14.1333 26.1287V27.2563C14.1333 27.5475 14.3694 27.7836 14.6606 27.7836Z" fill="#5A6770" fill-opacity="0.7"/>
<path d="M12.2373 31.7236C12.5285 31.7236 12.7646 31.4874 12.7646 31.1962V30.0686C12.7646 29.7774 12.5285 29.5413 12.2373 29.5413C11.9461 29.5413 11.71 29.7774 11.71 30.0686V31.1962C11.71 31.4874 11.946 31.7236 12.2373 31.7236Z" fill="#5A6770" fill-opacity="0.7"/>
<path d="M14.6606 31.7236C14.9519 31.7236 15.188 31.4874 15.188 31.1962V30.0686C15.188 29.7774 14.9519 29.5413 14.6606 29.5413C14.3694 29.5413 14.1333 29.7774 14.1333 30.0686V31.1962C14.1333 31.4874 14.3694 31.7236 14.6606 31.7236Z" fill="#5A6770" fill-opacity="0.7"/>
</g>
<defs>
<clipPath id="clip0_2311_569">
<rect width="36" height="36" fill="white"/>
</clipPath>
</defs>
</svg>
