<svg width="34" height="34" viewBox="0 0 34 34" fill="none" xmlns="http://www.w3.org/2000/svg">
<path d="M32.8361 12.2455C33.2556 12.2455 33.6316 12.0287 33.8418 11.6656C34.052 11.3025 34.0527 10.8684 33.8436 10.5047L31.3543 6.17117C31.2655 6.01652 31.1008 5.92116 30.9225 5.92116H28.6542V2.15891C28.6542 1.8838 28.4312 1.66089 28.1561 1.66089H24.8267C24.5516 1.66089 24.3287 1.8838 24.3287 2.15891V5.92116H18.4277C18.1525 5.92116 17.9296 6.14408 17.9296 6.41919C17.9296 6.69429 18.1525 6.91721 18.4277 6.91721H30.6343L32.98 11.0008C33.0215 11.073 32.9977 11.1356 32.9798 11.1666C32.9618 11.1976 32.9194 11.2495 32.8361 11.2495H13.2854L9.10383 8.01724C8.92441 7.87859 8.67407 7.87859 8.49465 8.01724L4.31299 11.2495H1.16384C1.08057 11.2495 1.03807 11.1976 1.02014 11.1667C1.00221 11.1356 0.978373 11.073 1.01988 11.0007L3.36562 6.91721H16.4355C16.7105 6.91721 16.9335 6.69429 16.9335 6.41919C16.9335 6.14408 16.7105 5.92116 16.4355 5.92116H3.07737C2.89901 5.92116 2.73433 6.01652 2.64555 6.17117L0.156239 10.5046C-0.0527307 10.8684 -0.0520666 11.3025 0.158165 11.6655C0.368396 12.0286 0.744303 12.2454 1.1639 12.2454H1.99294V18.2549L0.334863 21.1414C0.12151 21.5053 0.117327 21.9554 0.323973 22.3161C0.528427 22.6729 0.89776 22.886 1.31191 22.886H1.99288V29.3641C1.43071 29.4451 0.996833 29.9287 0.996833 30.5129V31.8409C0.996833 32.116 1.21981 32.3389 1.49485 32.3389H13.3478C13.6228 32.3389 13.8458 32.116 13.8458 31.8409C13.8458 31.5658 13.6228 31.3429 13.3478 31.3429H1.99288V30.5129C1.99288 30.4213 2.06738 30.3469 2.15888 30.3469H31.841C31.9325 30.3469 32.007 30.4213 32.007 30.5129V31.3429H15.3399C15.0648 31.3429 14.8418 31.5658 14.8418 31.8409C14.8418 32.116 15.0648 32.3389 15.3399 32.3389H32.505C32.7801 32.3389 33.003 32.116 33.003 31.8409V30.5129C33.003 29.9287 32.5691 29.445 32.007 29.3641V24.364C32.007 24.0889 31.7841 23.866 31.509 23.866C31.2338 23.866 31.0109 24.0889 31.0109 24.364V29.3509H22.6733V22.8861H24.3333V27.0363C24.3333 27.3114 24.5562 27.5343 24.8314 27.5343H28.1515C28.4266 27.5343 28.6495 27.3114 28.6495 27.0363V22.8861H32.6596C33.0792 22.8861 33.4552 22.6693 33.6654 22.3062C33.8756 21.9431 33.8763 21.509 33.6672 21.1453L32.007 18.255V12.2456H32.8361V12.2455ZM25.3247 2.65693H27.6582V5.92116H25.3247V2.65693ZM25.3294 14.9016H27.6535V15.8977H25.3294V14.9016ZM27.6535 13.9056H25.3294V12.2455H27.6535V13.9056ZM16.9336 14.9016H19.2577V15.8977H16.9336V14.9016ZM19.2577 13.9056H16.9336V12.2455H19.2577V13.9056ZM5.3504 22.886V27.0362C5.3504 27.3113 5.57339 27.5342 5.84843 27.5342H9.16857C9.44361 27.5342 9.66659 27.3113 9.66659 27.0362V22.886H11.3267V29.3508H2.98899V22.886H5.3504ZM8.67055 22.886V24.5461H6.34645V22.886H8.67055ZM6.34645 25.5422H8.67055V26.5382H6.34645V25.5422ZM18.162 29.3509H15.8379V22.8861H18.162V29.3509ZM19.1581 29.3509V22.388C19.1581 22.1129 18.9352 21.89 18.6601 21.89H15.3399C15.0649 21.89 14.8419 22.1129 14.8419 22.388V29.3508H12.3227V22.6325L17 19.0172L21.6773 22.6325V29.3509H19.1581ZM25.3294 26.5382V25.5422H27.6535V26.5382H25.3294ZM27.6535 24.5461H25.3294V22.886H27.6535V24.5461ZM32.8033 21.8071C32.7854 21.8381 32.743 21.89 32.6596 21.89H22.3453L18.4587 18.8858H31.2208L32.8036 21.6413C32.8451 21.7136 32.8212 21.7762 32.8033 21.8071ZM31.011 17.8898H7.10583C6.83079 17.8898 6.60781 18.1127 6.60781 18.3878C6.60781 18.6629 6.83079 18.8858 7.10583 18.8858H15.5413L11.6547 21.89H1.31198C1.25614 21.89 1.2145 21.8668 1.18827 21.8209C1.1738 21.7957 1.14544 21.7282 1.19637 21.6412L2.77922 18.8858H5.11375C5.38879 18.8858 5.61177 18.6629 5.61177 18.3878C5.61177 18.1127 5.38879 17.8898 5.11375 17.8898H2.98899V12.2455H4.48305C4.59328 12.2455 4.70039 12.2089 4.78764 12.1415L8.79924 9.04077L12.8108 12.1415C12.898 12.209 13.0052 12.2455 13.1154 12.2455H15.9375V16.3957C15.9375 16.6708 16.1605 16.8937 16.4356 16.8937H19.7557C20.0308 16.8937 20.2537 16.6708 20.2537 16.3957V12.2455H24.3334V16.3957C24.3334 16.6708 24.5563 16.8937 24.8314 16.8937H28.1516C28.4267 16.8937 28.6496 16.6708 28.6496 16.3957V12.2455H31.011V17.8898Z" fill="#5A6770" fill-opacity="0.7"/>
<path d="M10.4593 11.2495H7.13913C6.86409 11.2495 6.64111 11.4724 6.64111 11.7475V16.3957C6.64111 16.6708 6.86409 16.8938 7.13913 16.8938H10.4593C10.7343 16.8938 10.9573 16.6708 10.9573 16.3957V11.7475C10.9573 11.4725 10.7343 11.2495 10.4593 11.2495ZM9.96126 12.2456V13.9056H7.63716V12.2456H9.96126ZM7.63716 15.8977V14.9017H9.96126V15.8977H7.63716Z" fill="#5A6770" fill-opacity="0.7"/>
</svg>
