<svg width="30" height="30" viewBox="0 0 30 30" fill="none" xmlns="http://www.w3.org/2000/svg">
<g clip-path="url(#clip0_2311_609)">
<path d="M13.9995 23.5002H13.4995C13.2235 23.5002 12.9995 23.7237 12.9995 24.0002C12.9995 24.2767 13.2235 24.5002 13.4995 24.5002H13.9995C14.2755 24.5002 14.4995 24.2767 14.4995 24.0002C14.4995 23.7237 14.2755 23.5002 13.9995 23.5002Z" fill="black"/>
<path d="M21.0002 23.5002H24.5002C25.0517 23.5002 25.5002 23.0517 25.5002 22.5002V17.0002C25.5002 16.4487 25.0517 16.0002 24.5002 16.0002H21.0002C20.4487 16.0002 20.0002 16.4487 20.0002 17.0002V22.5002C20.0002 23.0517 20.4487 23.5002 21.0002 23.5002ZM21.0002 17.0002H24.5002V22.5002H21.0002V17.0002Z" fill="black"/>
<path d="M9 16.0002H5.5C4.9485 16.0002 4.5 16.4487 4.5 17.0002V22.5002C4.5 23.0517 4.9485 23.5002 5.5 23.5002H9C9.5515 23.5002 10 23.0517 10 22.5002V17.0002C10 16.4487 9.5515 16.0002 9 16.0002ZM5.5 22.5002V17.0002H9V22.5002H5.5Z" fill="black"/>
<path d="M29.0147 26.3814C28.8717 25.6039 28.2612 24.9949 27.5002 24.8699V14.9284C27.6647 14.9709 27.8322 14.9994 28.0002 14.9994C28.5692 14.9994 29.1337 14.7594 29.5267 14.2924C30.2367 13.4499 30.1317 12.1859 29.2922 11.4734L26.4997 9.11039V3.00039C26.4997 2.17338 25.8267 1.50038 24.9997 1.50038H22.9997C22.1727 1.50038 21.4997 2.17338 21.4997 3.00039V4.87989L16.3577 0.528385C15.9487 0.182385 15.4907 -0.000115323 15.0282 -0.000115323C14.5162 -0.00611532 13.9902 0.197885 13.6422 0.527885L0.706156 11.4739C-0.132344 12.1859 -0.237344 13.4499 0.472156 14.2924C0.982656 14.8974 1.77816 15.1149 2.50016 14.9289V28.4999C2.50016 29.3269 3.17316 29.9999 4.00016 29.9999H28.1347C29.1632 29.9999 30.0002 29.1369 30.0002 28.0769C30.0002 27.3564 29.6152 26.7119 29.0147 26.3814ZM22.5002 3.00039C22.5002 2.72438 22.7247 2.50038 23.0002 2.50038H25.0002C25.2757 2.50038 25.5002 2.72438 25.5002 3.00039V8.26439L22.5002 5.72588V3.00039ZM1.23716 13.6479C0.881656 13.2259 0.933656 12.5929 1.35266 12.2374L14.3082 1.27388C14.4862 1.10538 14.7577 0.989385 15.0302 0.999885C15.2477 0.999885 15.4892 1.10338 15.7122 1.29188L28.6467 12.2369C29.0667 12.5929 29.1187 13.2264 28.7627 13.6479C28.4087 14.0684 27.7757 14.1194 27.3532 13.7634L15.6457 3.85689C15.4587 3.69889 15.2292 3.61939 14.9997 3.61939C14.7702 3.61939 14.5407 3.69839 14.3537 3.85689L2.64766 13.7629C2.22416 14.1194 1.59166 14.0679 1.23716 13.6479ZM3.50016 28.4999V14.3514L14.9997 4.62039L26.5002 14.3519V24.3844C26.1607 24.1404 25.7527 23.9994 25.3252 23.9994C24.4347 23.9994 23.6677 24.5759 23.3832 25.4149C22.9432 25.5304 22.5607 25.8264 22.3322 26.2344C21.5562 26.4739 21.0002 27.2199 21.0002 28.0769C21.0002 28.4129 21.0917 28.7244 21.2392 28.9999H19.0002V17.4999C19.0002 16.6729 18.3272 15.9999 17.5002 15.9999H12.5002C11.6732 15.9999 11.0002 16.6729 11.0002 17.4999V28.9999H4.00016C3.71966 28.9999 3.50016 28.7804 3.50016 28.4999ZM18.0002 28.9999H12.0002V17.4999C12.0002 17.2239 12.2247 16.9999 12.5002 16.9999H17.5002C17.7757 16.9999 18.0002 17.2239 18.0002 17.4999V28.9999ZM28.1347 28.9999H22.8652C22.3882 28.9999 22.0002 28.5859 22.0002 28.0769C22.0002 27.6154 22.3232 27.2224 22.7517 27.1624C22.9357 27.1364 23.0902 27.0109 23.1532 26.8359C23.2542 26.5549 23.5097 26.3644 23.7902 26.3624C24.0352 26.3604 24.2427 26.1819 24.2802 25.9394C24.3637 25.4039 24.8132 24.9999 25.3252 24.9999C25.7302 24.9999 26.1052 25.2514 26.2812 25.6404C26.3907 25.8834 26.6737 25.9974 26.9212 25.8994C27.0147 25.8624 27.1132 25.8434 27.2137 25.8434C27.6692 25.8434 28.0427 26.2389 28.0467 26.7249C28.0482 26.9394 28.1862 27.1289 28.3897 27.1954C28.7492 27.3144 29.0002 27.6769 29.0002 28.0774C29.0002 28.5864 28.6122 28.9999 28.1347 28.9999Z" fill="black"/>
</g>
<defs>
<clipPath id="clip0_2311_609">
<rect width="30" height="30" fill="white"/>
</clipPath>
</defs>
</svg>
