<svg xmlns="http://www.w3.org/2000/svg" width="664" height="812" viewBox="0 0 424 812" fill="none">
    <g opacity="0.3">
        <line x1="-58.25" y1="457.082" x2="423.75" y2="178.799" stroke="#0d084d"/>
        <line x1="-58.25" y1="479.345" x2="423.75" y2="201.062" stroke="#0d084d"/>
        <line x1="-58.25" y1="501.608" x2="423.75" y2="223.325" stroke="#0d084d"/>
        <line x1="-58.25" y1="523.87" x2="423.75" y2="245.587" stroke="#0d084d"/>
        <line x1="-58.25" y1="546.133" x2="423.75" y2="267.85" stroke="#0d084d"/>
        <line x1="-58.25" y1="568.395" x2="423.75" y2="290.113" stroke="#0d084d"/>
        <line x1="-58.25" y1="590.658" x2="423.75" y2="312.375" stroke="#0d084d"/>
        <line x1="-58.25" y1="612.921" x2="423.75" y2="334.638" stroke="#0d084d"/>
        <line x1="-58.25" y1="278.981" x2="423.75" y2="0.698335" stroke="#0d084d"/>
        <line x1="-58.25" y1="301.244" x2="423.75" y2="22.9609" stroke="#0d084d"/>
        <line x1="-58.25" y1="323.506" x2="423.75" y2="45.2236" stroke="#0d084d"/>
        <line x1="-58.25" y1="345.769" x2="423.75" y2="67.4862" stroke="#0d084d"/>
        <line x1="-58.25" y1="368.032" x2="423.75" y2="89.7487" stroke="#0d084d"/>
        <line x1="-58.25" y1="390.294" x2="423.75" y2="112.011" stroke="#0d084d"/>
        <line x1="-58.25" y1="412.557" x2="423.75" y2="134.274" stroke="#0d084d"/>
        <line x1="-58.25" y1="434.82" x2="423.75" y2="156.537" stroke="#0d084d"/>
        <line x1="-58.25" y1="813.284" x2="423.75" y2="535.001" stroke="#0d084d"/>
        <line x1="-58.25" y1="835.547" x2="423.75" y2="557.264" stroke="#0d084d"/>
        <line x1="-58.25" y1="857.809" x2="423.75" y2="579.527" stroke="#0d084d"/>
        <line x1="-58.25" y1="880.072" x2="423.75" y2="601.789" stroke="#0d084d"/>
        <line x1="-58.25" y1="902.335" x2="423.75" y2="624.052" stroke="#0d084d"/>
        <line x1="-58.25" y1="924.597" x2="423.75" y2="646.314" stroke="#0d084d"/>
        <line x1="-58.25" y1="946.86" x2="423.75" y2="668.577" stroke="#0d084d"/>
        <line x1="-58.25" y1="969.123" x2="423.75" y2="690.84" stroke="#0d084d"/>
        <line x1="-58.25" y1="635.183" x2="423.75" y2="356.9" stroke="#0d084d"/>
        <line x1="-58.25" y1="657.446" x2="423.75" y2="379.163" stroke="#0d084d"/>
        <line x1="-58.25" y1="679.708" x2="423.75" y2="401.426" stroke="#0d084d"/>
        <line x1="-58.25" y1="701.971" x2="423.75" y2="423.688" stroke="#0d084d"/>
        <line x1="-58.25" y1="724.234" x2="423.75" y2="445.951" stroke="#0d084d"/>
        <line x1="-58.25" y1="746.496" x2="423.75" y2="468.213" stroke="#0d084d"/>
        <line x1="-58.25" y1="768.759" x2="423.75" y2="490.476" stroke="#0d084d"/>
        <line x1="-58.25" y1="791.022" x2="423.75" y2="512.739" stroke="#0d084d"/>
    </g>
</svg>