<svg width="29" height="29" viewBox="0 0 29 29" fill="none" xmlns="http://www.w3.org/2000/svg">
<g clip-path="url(#clip0_2311_614)">
<path d="M14.5 0C6.50117 0 0 6.50117 0 14.5C0 22.4988 6.50117 29 14.5 29C22.4988 29 29 22.4988 29 14.5C29 6.50117 22.4988 0 14.5 0ZM14.5 27.5364C7.31807 27.5364 1.46362 21.6819 1.46362 14.5C1.46362 7.31807 7.31807 1.46362 14.5 1.46362C21.6819 1.46362 27.5364 7.31807 27.5364 14.5C27.5364 21.6819 21.6819 27.5364 14.5 27.5364Z" fill="#5A6770"/>
<path d="M15.5212 14.432L19.7759 10.1773C20.0482 9.90496 20.0482 9.42843 19.7759 9.15613C19.5036 8.88383 19.0271 8.88383 18.7548 9.15613L14.5001 13.4108L10.2454 9.15613C9.97307 8.88383 9.49655 8.88383 9.22424 9.15613C8.95194 9.42843 8.95194 9.90496 9.22424 10.1773L13.4789 14.432L9.22424 18.6526C8.95194 18.9249 8.95194 19.4014 9.22424 19.6737C9.3604 19.8099 9.56462 19.878 9.73481 19.878C9.905 19.878 10.1092 19.8099 10.2454 19.6737L14.5001 15.419L18.7548 19.6737C18.8909 19.8099 19.0951 19.878 19.2653 19.878C19.4355 19.878 19.6397 19.8099 19.7759 19.6737C20.0482 19.4014 20.0482 18.9249 19.7759 18.6526L15.5212 14.432Z" fill="#5A6770"/>
</g>
<defs>
<clipPath id="clip0_2311_614">
<rect width="29" height="29" fill="white"/>
</clipPath>
</defs>
</svg>
