<svg width="28" height="30" viewBox="0 0 28 30" fill="none" xmlns="http://www.w3.org/2000/svg">
<path d="M27.5644 17.4257L27.4866 17.3059C26.9896 16.5455 26.4807 15.7551 25.9657 14.9827C26.4088 14.3121 26.8519 13.6295 27.277 12.9709L27.5225 12.5877C27.9716 11.8871 28.0973 11.1327 27.8698 10.4561C27.6423 9.77945 27.0854 9.24655 26.307 8.95915C25.822 8.77952 25.3251 8.5939 24.852 8.41427C24.4628 8.26458 24.0617 8.11489 23.6665 7.9652C23.6366 7.34847 23.6066 6.73175 23.5707 6.13298C23.5527 5.77373 23.5288 5.41447 23.5108 5.05521C23.439 3.70799 22.4929 2.76195 21.2056 2.76195C20.9721 2.76195 20.7325 2.79189 20.493 2.85775L20.2835 2.91164C19.4272 3.13917 18.5471 3.37269 17.6789 3.62417C17.2897 3.13917 16.8945 2.65417 16.5113 2.18115C16.2897 1.9117 16.0742 1.64226 15.8526 1.37282C15.3497 0.75609 14.685 0.414795 13.9785 0.414795C13.272 0.414795 12.6013 0.75609 12.0984 1.3788L11.811 1.73207C11.308 2.35479 10.7811 3.00145 10.2781 3.64812C9.58956 3.45651 8.90099 3.2709 8.33216 3.12121C8.12259 3.06732 7.91901 3.01343 7.73939 2.96553C7.7334 2.96553 7.72741 2.95954 7.71543 2.95954C7.3921 2.8817 7.08673 2.84577 6.79933 2.84577C5.45211 2.84577 4.55396 3.69003 4.45217 5.04922C4.37434 6.12101 4.33242 7.16885 4.30248 8.00711C3.35045 8.36637 2.42835 8.71964 1.55416 9.06693C0.829657 9.35433 0.31472 9.87526 0.105153 10.5399C-0.110402 11.2045 0.00935108 11.935 0.428485 12.5936C0.937434 13.384 1.48231 14.2163 2.03317 15.0486C1.46435 15.9108 0.919471 16.755 0.404535 17.5754C0.0153387 18.1921 -0.0864511 18.9226 0.129104 19.5692C0.344659 20.2219 0.865583 20.7488 1.55416 21.0182L1.81163 21.12C2.63792 21.4374 3.48817 21.7667 4.33841 22.084C4.35637 22.3714 4.37434 22.6589 4.3923 22.9403C4.4402 23.5929 4.48211 24.2096 4.47613 24.8324C4.47014 25.497 4.72761 26.1437 5.18267 26.5987C5.61976 27.0418 6.20655 27.2813 6.83525 27.2813C7.1047 27.2813 7.37414 27.2394 7.64358 27.1556C8.23037 26.9699 8.8471 26.8083 9.44586 26.6526C9.73327 26.5748 10.0326 26.4969 10.332 26.4191C10.9488 27.1915 11.5715 27.9519 12.1583 28.6704C12.6672 29.2872 13.3318 29.6285 14.0324 29.6285C14.7389 29.6285 15.4036 29.2872 15.9065 28.6644C16.5831 27.8322 17.1579 27.1196 17.7208 26.4011C18.4572 26.6047 19.2057 26.8023 19.9302 26.9939L20.5469 27.1556C20.7804 27.2154 21.014 27.2454 21.2415 27.2454C22.5109 27.2454 23.4869 26.2933 23.5527 24.9761C23.5707 24.6467 23.5886 24.3174 23.6066 23.9821C23.6425 23.3414 23.6785 22.6828 23.7024 22.0301C24.5467 21.7128 25.3909 21.3835 26.2172 21.0602L26.4148 20.9823C27.1513 20.6949 27.6782 20.168 27.8938 19.4974C28.1093 18.8148 27.9955 18.0843 27.5644 17.4257ZM26.3549 18.9884C26.2891 19.192 26.1035 19.3597 25.828 19.4674L25.6304 19.5453C24.7503 19.8866 23.8401 20.2398 22.942 20.5811C22.4031 20.7847 22.1157 21.1679 22.0977 21.7248C22.0738 22.4433 22.0319 23.1738 21.99 23.8863C21.972 24.2216 21.954 24.5509 21.9361 24.8863C21.9121 25.3473 21.6546 25.6227 21.2415 25.6227C21.1517 25.6227 21.0619 25.6108 20.9661 25.5868L20.3493 25.4251C19.547 25.2156 18.7207 24.994 17.9064 24.7665C17.7806 24.7306 17.6609 24.7126 17.5471 24.7126C17.1819 24.7126 16.8705 24.8743 16.6131 25.1916C16.0023 25.964 15.3856 26.7304 14.6551 27.6346C14.4635 27.8741 14.242 27.9998 14.0384 27.9998C13.8288 27.9998 13.6073 27.8681 13.4097 27.6286C12.775 26.8562 12.0984 26.0299 11.4397 25.1976C11.1284 24.8084 10.7631 24.7246 10.5176 24.7246C10.3979 24.7246 10.2781 24.7425 10.1464 24.7785C9.78117 24.8803 9.40395 24.9821 9.0387 25.0779C8.42198 25.2395 7.78729 25.4072 7.16457 25.6048C6.82328 25.7125 6.53587 25.6587 6.33229 25.4551C6.17661 25.2994 6.09279 25.0779 6.09279 24.8384C6.09877 24.1558 6.05087 23.4792 6.00896 22.8205C5.98501 22.4732 5.96106 22.114 5.9431 21.7667C5.91316 21.0721 5.48205 20.7727 5.12279 20.641C4.21267 20.3057 3.29057 19.9524 2.39243 19.6052L2.13496 19.5034C1.89546 19.4136 1.7278 19.2519 1.66194 19.0543C1.59607 18.8627 1.63799 18.6411 1.76972 18.4316C2.31459 17.5694 2.89539 16.6652 3.50014 15.7551C3.8115 15.2881 3.8115 14.7971 3.50014 14.3301C2.91335 13.4559 2.32657 12.5577 1.78768 11.7135C1.632 11.468 1.57811 11.2285 1.64397 11.0309C1.70385 10.8393 1.88348 10.6716 2.14694 10.5698C3.08101 10.1986 4.07495 9.82137 5.09884 9.43217C5.60779 9.24057 5.88921 8.85137 5.90717 8.30051C5.93711 7.44428 5.97902 6.30663 6.06285 5.157C6.09877 4.65404 6.30235 4.45645 6.79334 4.45645C6.94902 4.45645 7.12865 4.4804 7.32624 4.5283C7.50587 4.5762 7.70346 4.63009 7.91303 4.68398C8.54772 4.85163 9.26623 5.04324 9.99074 5.2528C10.1464 5.29472 10.2841 5.31867 10.4218 5.31867C10.823 5.31867 11.1643 5.13904 11.4397 4.78577C11.9667 4.10318 12.5235 3.42059 13.0564 2.75596L13.3438 2.40269C13.5354 2.16917 13.757 2.03744 13.9665 2.03744C14.1761 2.03744 14.3976 2.16318 14.5832 2.3967C14.8048 2.66614 15.0203 2.93559 15.2419 3.20503C15.667 3.72596 16.1101 4.27083 16.5352 4.80373C16.7987 5.13305 17.122 5.3007 17.4932 5.3007C17.619 5.3007 17.7507 5.28274 17.8884 5.24083C18.8165 4.97138 19.7685 4.7199 20.6906 4.47441L20.9002 4.42052C21.002 4.39058 21.1038 4.37861 21.1936 4.37861C21.7864 4.37861 21.8762 4.91151 21.8882 5.13904C21.9061 5.4983 21.9241 5.85755 21.948 6.2228C21.984 6.89341 22.0259 7.58798 22.0558 8.27057C22.0798 8.81544 22.3672 9.21662 22.8701 9.40223C23.3372 9.57587 23.8102 9.7555 24.2712 9.92914C24.7502 10.1088 25.2472 10.3004 25.7442 10.48C26.0556 10.5938 26.2651 10.7734 26.337 10.977C26.4028 11.1806 26.343 11.444 26.1633 11.7194L25.9178 12.1027C25.4568 12.8212 24.9778 13.5636 24.4988 14.2822C24.1036 14.8749 24.2772 15.3839 24.4988 15.7072C25.0556 16.5275 25.6005 17.3778 26.1334 18.1981L26.2112 18.3238C26.3669 18.5453 26.4208 18.7908 26.3549 18.9884Z" fill="#DB877D"/>
<path d="M17.1822 11.8032L12.4759 16.5094L10.8113 14.8449C10.494 14.5275 9.98504 14.5275 9.6677 14.8449C9.35035 15.1622 9.35035 15.6712 9.6677 15.9885L11.9011 18.2219C11.919 18.2399 11.943 18.2578 11.961 18.2758C12.1107 18.3955 12.2903 18.4554 12.4699 18.4554C12.6795 18.4554 12.8831 18.3776 13.0387 18.2159L18.3198 12.9348C18.6372 12.6175 18.6372 12.1085 18.3198 11.7912C18.0025 11.4738 17.4995 11.4858 17.1822 11.8032Z" fill="#DB877D"/>
</svg>
