<svg width="31" height="32" viewBox="0 0 31 32" fill="none" xmlns="http://www.w3.org/2000/svg">
<path d="M20.3265 0C14.4668 0 9.69956 4.76727 9.69956 10.627C9.69956 11.9297 9.93101 13.1956 10.388 14.3977L0.226849 24.5597C0.0816141 24.705 0 24.9019 0 25.1072V30.6676C0 31.0953 0.346722 31.442 0.774444 31.442H5.35663C5.5618 31.442 5.75856 31.3606 5.90379 31.2157L7.44795 29.6738C7.59349 29.5285 7.67523 29.3313 7.67523 29.1257V27.2296H9.56894C9.99666 27.2296 10.3434 26.8829 10.3434 26.4552V25.6962H11.1025C11.5301 25.6962 11.8769 25.3495 11.8769 24.9217V23.2553H13.5433C13.7487 23.2553 13.9456 23.1737 14.0909 23.0285L16.5548 20.5646C17.7571 21.0221 19.0232 21.2538 20.3264 21.2538C26.1861 21.2538 30.9534 16.4865 30.9534 10.6268C30.9534 4.76727 26.1862 0 20.3265 0ZM20.3265 19.7049C19.0589 19.7049 17.8329 19.4489 16.6825 18.9439C16.385 18.8133 16.05 18.8852 15.8307 19.0989C15.8283 19.1012 15.826 19.1031 15.8236 19.1054L13.2227 21.7064H11.1026C10.6749 21.7064 10.3282 22.0531 10.3282 22.4809V24.1473H9.56906C9.1414 24.1473 8.79461 24.494 8.79461 24.9217V25.6808H6.90085C6.47319 25.6808 6.1264 26.0275 6.1264 26.4552V28.8046L5.03619 29.8931H1.54901V28.7987L11.0148 19.3329C11.2871 19.0607 11.2871 18.6194 11.0148 18.3472C10.7426 18.075 10.3014 18.0749 10.029 18.3472L1.54901 26.8273V25.4281L11.8473 15.1291C11.8496 15.1268 11.8514 15.1247 11.8535 15.1224C12.0673 14.9032 12.1394 14.5682 12.0089 14.2705C11.5043 13.1202 11.2486 11.8942 11.2486 10.627C11.2486 5.62137 15.321 1.54895 20.3267 1.54895C25.3324 1.54895 29.4047 5.6213 29.4047 10.627C29.4046 15.6326 25.3321 19.7049 20.3265 19.7049Z" fill="#DB877D"/>
<path d="M23.5603 4.4917C21.9607 4.4917 20.6594 5.79298 20.6594 7.39253C20.6594 8.99208 21.9607 10.2934 23.5603 10.2934C25.1598 10.2934 26.4611 8.99208 26.4611 7.39253C26.4611 5.79298 25.1599 4.4917 23.5603 4.4917ZM23.5603 8.74448C22.8148 8.74448 22.2083 8.13799 22.2083 7.39253C22.2083 6.64707 22.8148 6.04059 23.5603 6.04059C24.3057 6.04059 24.9122 6.64707 24.9122 7.39253C24.9122 8.13799 24.3057 8.74448 23.5603 8.74448Z" fill="#DB877D"/>
</svg>
