<svg width="22" height="22" viewBox="0 0 22 22" fill="none" xmlns="http://www.w3.org/2000/svg">
<path d="M0.392578 2.39304C0.392578 1.59421 1.09491 0.945801 1.96068 0.945801H20.0419C20.908 0.945801 21.61 1.59421 21.61 2.39304V19.7024C21.61 20.5015 20.908 21.1494 20.0419 21.1494H1.96068C1.09499 21.1494 0.392578 20.5016 0.392578 19.7027V2.39281V2.39304Z" fill="white"/>
<path d="M6.84064 17.8534V8.75771H3.66566V17.8534H6.84064ZM5.25381 7.51605C6.36077 7.51605 7.04992 6.81761 7.04992 5.94475C7.0292 5.052 6.36077 4.37305 5.27487 4.37305C4.18822 4.37305 3.47852 5.052 3.47852 5.94467C3.47852 6.81753 4.16742 7.51597 5.23301 7.51597L5.25381 7.51605ZM8.59804 17.8534H11.7728V12.7745C11.7728 12.503 11.7935 12.2308 11.8774 12.0369C12.1068 11.4936 12.6292 10.9311 13.5065 10.9311C14.655 10.9311 15.1148 11.7651 15.1148 12.988V17.8534H18.2894V12.6382C18.2894 9.84452 16.7233 8.54446 14.6345 8.54446C12.9219 8.54446 12.1698 9.45591 11.7519 10.0767H11.773V8.75802H8.59821C8.63965 9.61131 8.59804 17.8534 8.59804 17.8534Z" fill="#C5D8E4"/>
</svg>
