<svg width="27" height="25" viewBox="0 0 27 25" fill="none" xmlns="http://www.w3.org/2000/svg">
<path d="M22.7537 16.1775L20.0873 18.844L18.5439 17.3001C18.3625 17.1188 18.0694 17.1188 17.888 17.3001C17.7066 17.4811 17.7066 17.7747 17.888 17.9561L19.7593 19.8279C19.8465 19.9151 19.9643 19.9638 20.0873 19.9638C20.2102 19.9638 20.3285 19.9151 20.4152 19.8279L23.4096 16.8335C23.591 16.6521 23.591 16.3589 23.4096 16.1775C23.2282 15.9962 22.9351 15.9962 22.7537 16.1775Z" fill="#DB877D"/>
<path d="M26.4475 1.94461C26.0912 1.58788 25.6172 1.39166 25.1129 1.39166H22.3138V0.463886C22.3138 0.207821 22.106 0 21.8499 0C21.5939 0 21.3861 0.207821 21.3861 0.463886V1.39166H16.7472V0.463886C16.7472 0.207821 16.5394 0 16.2833 0C16.0272 0 15.8194 0.207821 15.8194 0.463886V1.39166H11.1806V0.463886C11.1806 0.207821 10.9728 0 10.7167 0C10.4606 0 10.2528 0.207821 10.2528 0.463886V1.39166H5.61394V0.463886C5.61394 0.207821 5.40612 0 5.15006 0C4.89399 0 4.68617 0.207821 4.68617 0.463886V1.39166H1.88755C1.38331 1.39166 0.909216 1.58788 0.552488 1.94461C0.196224 2.30134 0 2.77543 0 3.27921V22.6984C0 23.2022 0.196224 23.6763 0.552952 24.033C0.909216 24.3897 1.38331 24.5859 1.88755 24.5859H25.1129C25.6172 24.5859 26.0912 24.3897 26.4475 24.033C26.8038 23.6763 27 23.2022 27 22.6984V3.27921C27.0005 2.77543 26.8038 2.30134 26.4475 1.94461ZM1.20842 2.60054C1.39027 2.41916 1.63102 2.31943 1.88755 2.31943H4.68617V3.2472C4.68617 3.50326 4.89399 3.71108 5.15006 3.71108C5.40612 3.71108 5.61394 3.50326 5.61394 3.2472V2.31943H10.2528V3.2472C10.2528 3.50326 10.4606 3.71108 10.7167 3.71108C10.9728 3.71108 11.1806 3.50326 11.1806 3.2472V2.31943H15.8194V3.2472C15.8194 3.50326 16.0272 3.71108 16.2833 3.71108C16.5394 3.71108 16.7472 3.50326 16.7472 3.2472V2.31943H21.3861V3.2472C21.3861 3.50326 21.5939 3.71108 21.8499 3.71108C22.106 3.71108 22.3138 3.50326 22.3138 3.2472V2.31943H25.1124C25.369 2.31943 25.6097 2.41916 25.7906 2.60054C25.972 2.78192 26.0718 3.02314 26.0718 3.27921V7.9561H0.927307V3.27921C0.927307 3.02314 1.02751 2.78192 1.20842 2.60054ZM14.3192 18.4241H11.3958V14.1179H15.6353C14.8003 15.1932 14.2979 16.5389 14.2979 18.0025C14.2979 18.1449 14.3099 18.284 14.3192 18.4241ZM11.3954 13.1901V8.88387H15.7016V13.1901H11.3954ZM10.4676 13.1901H6.16133V8.88387H10.4676V13.1901ZM5.23402 13.1901H0.927307V8.88387H5.23356L5.23402 13.1901ZM5.23402 14.1179V18.4241H0.927307V14.1179H5.23402ZM6.16179 14.1179H10.468V18.4241H6.16179V14.1179ZM10.4676 19.3519V23.6582H6.16133V19.3519H10.4676ZM11.3954 19.3519H14.4449C14.6574 20.3293 15.0953 21.2228 15.7016 21.9766V23.6582H11.3954V19.3519ZM16.6298 22.9155C16.981 23.2031 17.3656 23.4499 17.7733 23.6582H16.6298V22.9155ZM15.2257 18.0025C15.2257 15.0118 17.6587 12.5787 20.6489 12.5787C23.6396 12.5787 26.0727 15.0118 26.0727 18.0025C26.0727 20.9931 23.6391 23.4262 20.6489 23.4262C17.6583 23.4262 15.2257 20.9931 15.2257 18.0025ZM20.6489 11.651C19.1251 11.651 17.7255 12.1914 16.6298 13.0895V8.88387H20.8387V11.6607C20.7747 11.6588 20.713 11.651 20.6489 11.651ZM1.20889 23.3771C1.02751 23.1957 0.927771 22.9545 0.927771 22.6984V19.3519H5.23402V23.6582H1.88755C1.63102 23.6582 1.39027 23.5584 1.20889 23.3771ZM26.0727 22.6984C26.0727 22.9545 25.973 23.1957 25.7916 23.3771C25.6107 23.5584 25.3694 23.6582 25.1134 23.6582H23.5246C24.5781 23.1201 25.4594 22.2976 26.0722 21.2905L26.0727 22.6984ZM21.766 11.7558V8.88387H26.0722V14.7145C25.1426 13.1859 23.59 12.0814 21.766 11.7558Z" fill="#DB877D"/>
</svg>
