<svg width="23" height="23" viewBox="0 0 23 23" fill="none" xmlns="http://www.w3.org/2000/svg">
<path d="M22.5536 21.5582L16.5575 15.562C17.9797 13.9117 18.8407 11.7648 18.8407 9.42037C18.8407 4.22596 14.6148 0 9.42037 0C4.22596 0 0 4.22596 0 9.42037C0 14.6148 4.22596 18.8407 9.42037 18.8407C11.7648 18.8407 13.9117 17.9797 15.562 16.5575L21.5582 22.5537L22.5536 21.5582ZM1.40782 9.42037C1.40782 5.00224 5.00224 1.40782 9.42037 1.40782C13.8385 1.40782 17.4329 5.00224 17.4329 9.42037C17.4329 13.8385 13.8385 17.4329 9.42037 17.4329C5.00224 17.4329 1.40782 13.8385 1.40782 9.42037Z" fill="#DB877D"/>
</svg>
