<svg width="29" height="29" viewBox="0 0 29 29" fill="none" xmlns="http://www.w3.org/2000/svg">
<path d="M18.5692 10.2297C18.931 9.86786 18.931 9.28118 18.5692 8.91933C18.2073 8.55749 17.6207 8.55749 17.2589 8.91933L10.8103 15.3678L8.06808 12.6256C7.70623 12.2638 7.11955 12.2638 6.75771 12.6256C6.39587 12.9875 6.39587 13.5741 6.75771 13.9359L10.1551 17.3334C10.517 17.6952 11.1037 17.6952 11.4655 17.3334L18.5692 10.2297Z" fill="#DB877D"/>
<path fill-rule="evenodd" clip-rule="evenodd" d="M0 12.972C0 5.80775 5.80775 0 12.972 0C20.1362 0 25.9439 5.80775 25.9439 12.972C25.9439 16.2206 24.7498 19.1904 22.7764 21.466L28.1434 26.8331C28.5052 27.1949 28.5052 27.7815 28.1434 28.1434C27.7815 28.5052 27.1949 28.5052 26.8331 28.1434L21.466 22.7764C19.1904 24.7498 16.2206 25.9439 12.972 25.9439C5.80775 25.9439 0 20.1362 0 12.972ZM12.972 1.85314C6.83121 1.85314 1.85314 6.83121 1.85314 12.972C1.85314 19.1128 6.83121 24.0908 12.972 24.0908C19.1128 24.0908 24.0908 19.1128 24.0908 12.972C24.0908 6.83121 19.1128 1.85314 12.972 1.85314Z" fill="#DB877D"/>
</svg>
