<svg width="28" height="33" viewBox="0 0 28 33" fill="none" xmlns="http://www.w3.org/2000/svg">
<path d="M26.9666 8.96709C26.9507 8.13169 26.9356 7.34249 26.9356 6.57901C26.9356 5.98087 26.4508 5.49595 25.8525 5.49595C21.2206 5.49595 17.694 4.16479 14.7545 1.30667C14.3339 0.897705 13.6648 0.897849 13.2444 1.30667C10.3051 4.16479 6.77909 5.49595 2.14749 5.49595C1.54935 5.49595 1.06443 5.98087 1.06443 6.57901C1.06443 7.34264 1.04941 8.13212 1.03338 8.96766C0.884932 16.742 0.681606 27.3894 13.6447 31.8826C13.7596 31.9225 13.8795 31.9424 13.9994 31.9424C14.1192 31.9424 14.2392 31.9225 14.354 31.8826C27.3181 27.3892 27.1151 16.7416 26.9666 8.96709ZM13.9995 29.71C2.88195 25.6714 3.05004 16.8242 3.19922 9.00896C3.20817 8.53993 3.21683 8.08533 3.2229 7.63969C7.56092 7.45658 11.0299 6.14203 13.9995 3.5551C16.9694 6.14203 20.4389 7.45672 24.7773 7.63969C24.7833 8.08519 24.792 8.53949 24.8009 9.00824C24.95 16.8238 25.1179 25.6712 13.9995 29.71Z" fill="#DB877D" stroke="white" stroke-width="0.5"/>
<path d="M17.7295 12.7088L12.5021 17.9359L10.2714 15.7052C9.84846 15.2824 9.16266 15.2824 8.73984 15.7052C8.31686 16.1283 8.31686 16.814 8.73984 17.237L11.7363 20.2334C11.9477 20.4448 12.225 20.5506 12.5021 20.5506C12.7792 20.5506 13.0565 20.4448 13.2679 20.2334L19.261 14.2405C19.6841 13.8175 19.6841 13.1317 19.2611 12.7089C18.8383 12.2859 18.1525 12.2858 17.7295 12.7088Z" fill="#DB877D"/>
</svg>
