<svg width="26" height="20" viewBox="0 0 26 20" fill="none" xmlns="http://www.w3.org/2000/svg">
<path d="M8.17674 20C17.9885 20 23.3542 12.3062 23.3542 5.6344C23.3542 5.4159 23.3495 5.1984 23.3391 4.9818C24.3832 4.26676 25.2842 3.38142 26 2.3673C25.0442 2.7695 24.0157 3.0402 22.9367 3.16225C24.038 2.5372 24.8835 1.54835 25.2824 0.36965C24.2353 0.957597 23.0897 1.37207 21.8951 1.5952C20.9217 0.6138 19.5359 0 18.0014 0C15.0555 0 12.6667 2.2611 12.6667 5.04825C12.6667 5.4445 12.7136 5.8298 12.8051 6.1995C8.37163 5.98835 4.44035 3.97925 1.80933 0.9243C1.33545 1.69482 1.0862 2.57053 1.08703 3.462C1.08703 5.2137 2.02874 6.76005 3.46085 7.66475C2.61374 7.64026 1.78522 7.42369 1.04497 7.03325C1.04417 7.05445 1.04417 7.0751 1.04417 7.09775C1.04417 9.5429 2.88288 11.5844 5.32371 12.047C4.86529 12.1652 4.39225 12.225 3.91712 12.2247C3.574 12.2247 3.23959 12.1927 2.91459 12.1337C3.59371 14.1398 5.56294 15.5996 7.89771 15.6404C6.07195 16.9949 3.77206 17.8016 1.27241 17.8016C0.847193 17.802 0.422319 17.7786 0 17.7317C2.36082 19.1639 5.16406 19.9997 8.177 19.9997" fill="white"/>
</svg>
