<svg width="27" height="25" viewBox="0 0 27 25" fill="none" xmlns="http://www.w3.org/2000/svg">
<path d="M6.87827 21.6218L7.30402 21.8245C9.03999 22.8077 11.0246 23.3216 13.0445 23.311C19.2625 23.2975 24.3714 18.4211 24.3714 12.5002C24.3714 9.63876 23.1779 6.8908 21.0556 4.86513C18.9361 2.81853 16.0403 1.66516 13.0225 1.66516C6.83286 1.66516 1.74023 6.51514 1.74023 12.4083C1.74023 12.455 1.74023 12.5009 1.74095 12.5475C1.75959 14.5512 2.34811 16.5126 3.44393 18.2232L3.72775 18.6286L2.59244 22.615L6.87827 21.6218Z" fill="#C5D8E4"/>
<path d="M22.3176 3.6488C19.9015 1.3015 16.587 -0.0153588 13.1357 0.000135194H13.1136C6.00587 0.000156361 0.156844 5.56974 0.156844 12.3379C0.156844 12.3697 0.157556 12.4008 0.157556 12.4325C0.184328 14.5844 0.769345 16.6966 1.86054 18.5811L0.015625 25L6.89142 23.3108C8.79086 24.3038 10.9263 24.8157 13.0931 24.7973C20.2272 24.7601 26.0755 19.1588 26.0712 12.365C26.0882 9.10078 24.7365 5.96162 22.3176 3.6488ZM13.1357 22.7027C11.2149 22.7122 9.32806 22.2216 7.67903 21.2838L7.25328 21.0811L3.15904 22.0946L4.22339 18.2433L3.93958 17.8379C2.88529 16.2169 2.32673 14.348 2.3267 12.4413C2.3267 6.81838 7.18588 2.19135 13.091 2.19135C18.996 2.19135 23.8552 6.81838 23.8552 12.4413C23.8552 15.9818 21.9287 19.2805 18.7697 21.1487C17.0989 22.1678 15.1553 22.7073 13.1712 22.7027M19.4083 15.2028L18.6278 14.8649C18.6278 14.8649 17.4924 14.392 16.7829 14.0541C16.7119 14.0541 16.641 13.9866 16.57 13.9866C16.3951 13.9907 16.2241 14.0372 16.0733 14.1217C15.9222 14.2062 16.0023 14.1893 15.0089 15.2703C14.9415 15.3967 14.8032 15.4758 14.6542 15.473H14.5832C14.4765 15.456 14.3777 15.409 14.2994 15.3379L13.9446 15.2028C13.1833 14.8959 12.4863 14.461 11.8868 13.919C11.7449 13.7839 11.532 13.6487 11.3901 13.5136C10.8648 13.0344 10.4112 12.4888 10.0419 11.892L9.97095 11.7569C9.90931 11.6743 9.86144 11.5831 9.82904 11.4866C9.81048 11.3695 9.83559 11.25 9.89999 11.1488C9.96457 11.0474 10.1838 10.8109 10.3967 10.6082C10.6096 10.4055 10.6096 10.2704 10.7515 10.1352C10.8244 10.0388 10.8748 9.92858 10.8993 9.81203C10.9238 9.69548 10.9218 9.5753 10.8934 9.45955C10.5627 8.58527 10.1837 7.72823 9.75808 6.89202C9.64399 6.72305 9.46623 6.60215 9.26138 6.55418H8.48084C8.33893 6.55418 8.19702 6.62174 8.05509 6.62174L7.98414 6.6893C7.84223 6.75687 7.70032 6.89202 7.55839 6.95958C7.41648 7.02714 7.34553 7.22986 7.20362 7.36499C6.70757 7.96189 6.4331 8.69842 6.42308 9.45955C6.43094 9.99496 6.55158 10.5234 6.77785 11.0136L6.84883 11.2163C7.48596 12.5134 8.37702 13.683 9.47427 14.6622L9.75808 14.9325C9.96462 15.0954 10.1547 15.2764 10.3257 15.473C11.796 16.6913 13.5422 17.5696 15.4276 18.0406C15.6405 18.1082 15.9243 18.1082 16.1372 18.1757H16.8467C17.2176 18.1583 17.5804 18.0662 17.9111 17.9054C18.0849 17.8305 18.251 17.7399 18.4078 17.6352L18.5497 17.5C18.6916 17.3649 18.8335 17.2974 18.9755 17.1622C19.1141 17.0446 19.2337 16.9079 19.3302 16.7568C19.4665 16.4541 19.5623 16.1366 19.6141 15.8109V15.3379C19.5503 15.2834 19.4786 15.2378 19.4012 15.2028" fill="white"/>
</svg>
